<svg xmlns="http://www.w3.org/2000/svg" viewBox="0 0 24 24" width="28" height="28"><path fill="#ffffff" d="M12 5c-3.86 0-7.2 2.11-9 5.25C4.8 13.89 8.14 16 12 16c3.86 0 7.2-2.11 9-5.25C19.2 7.11 15.86 5 12 5zm0 9a3.75 3.75 0 110-7.5 3.75 3.75 0 010 7.5z" opacity=".4"/><path fill="#ffffff" d="M2 2l20 20-1.5 1.5L14 16.5A7.963 7.963 0 0112 17c-3.86 0-7.2-2.11-9-5.25.4-.84.96-1.62 1.62-2.3L.5 3.5 2 2zm4.7 4.7L5.1 8.3C6.2 6.7 8 5.5 12 5.5c1.2 0 2.32.2 3.3.6l-1.94 1.94A3.76 3.76 0 0012 7.5c-1.1 0-2.1.46-2.8 1.2z"/></svg>